<?xml version="1.0" encoding="UTF-8" standalone="no"?>
<!DOCTYPE svg PUBLIC "-//W3C//DTD SVG 1.1//EN"
 "http://www.w3.org/Graphics/SVG/1.1/DTD/svg11.dtd">
<!-- Generated by graphviz version 2.43.0 (0)
 -->
<!-- Title: src/codec.c Pages: 1 -->
<svg width="237pt" height="140pt"
 viewBox="0.00 0.00 236.50 140.00" xmlns="http://www.w3.org/2000/svg" xmlns:xlink="http://www.w3.org/1999/xlink">
<g id="graph0" class="graph" transform="scale(1 1) rotate(0) translate(4 136)">
<title>src/codec.c</title>
<polygon fill="white" stroke="transparent" points="-4,4 -4,-136 232.5,-136 232.5,4 -4,4"/>
<!-- Node1 -->
<g id="node1" class="node">
<title>Node1</title>
<g id="a_node1"><a xlink:title=" ">
<polygon fill="#bfbfbf" stroke="black" points="95.5,-112.5 95.5,-131.5 166.5,-131.5 166.5,-112.5 95.5,-112.5"/>
<text text-anchor="middle" x="131" y="-119.5" font-family="Helvetica,sans-Serif" font-size="10.00">src/codec.c</text>
</a>
</g>
</g>
<!-- Node2 -->
<g id="node2" class="node">
<title>Node2</title>
<g id="a_node2"><a xlink:href="codec_8h.html" target="_top" xlink:title=" ">
<polygon fill="white" stroke="black" points="0,-56.5 0,-75.5 86,-75.5 86,-56.5 0,-56.5"/>
<text text-anchor="middle" x="43" y="-63.5" font-family="Helvetica,sans-Serif" font-size="10.00">mathi/codec.h</text>
</a>
</g>
</g>
<!-- Node1&#45;&gt;Node2 -->
<g id="edge1" class="edge">
<title>Node1&#45;&gt;Node2</title>
<path fill="none" stroke="midnightblue" d="M116.86,-112.32C103.13,-103.9 82.06,-90.97 65.94,-81.07"/>
<polygon fill="midnightblue" stroke="midnightblue" points="67.46,-77.9 57.1,-75.65 63.8,-83.87 67.46,-77.9"/>
</g>
<!-- Node4 -->
<g id="node4" class="node">
<title>Node4</title>
<g id="a_node4"><a xlink:title=" ">
<polygon fill="white" stroke="#bfbfbf" points="104.5,-56.5 104.5,-75.5 157.5,-75.5 157.5,-56.5 104.5,-56.5"/>
<text text-anchor="middle" x="131" y="-63.5" font-family="Helvetica,sans-Serif" font-size="10.00">stdlib.h</text>
</a>
</g>
</g>
<!-- Node1&#45;&gt;Node4 -->
<g id="edge3" class="edge">
<title>Node1&#45;&gt;Node4</title>
<path fill="none" stroke="midnightblue" d="M131,-112.08C131,-105.01 131,-94.86 131,-85.99"/>
<polygon fill="midnightblue" stroke="midnightblue" points="134.5,-85.75 131,-75.75 127.5,-85.75 134.5,-85.75"/>
</g>
<!-- Node5 -->
<g id="node5" class="node">
<title>Node5</title>
<g id="a_node5"><a xlink:title=" ">
<polygon fill="white" stroke="#bfbfbf" points="175.5,-56.5 175.5,-75.5 228.5,-75.5 228.5,-56.5 175.5,-56.5"/>
<text text-anchor="middle" x="202" y="-63.5" font-family="Helvetica,sans-Serif" font-size="10.00">string.h</text>
</a>
</g>
</g>
<!-- Node1&#45;&gt;Node5 -->
<g id="edge4" class="edge">
<title>Node1&#45;&gt;Node5</title>
<path fill="none" stroke="midnightblue" d="M142.41,-112.32C153.11,-104.18 169.34,-91.84 182.16,-82.09"/>
<polygon fill="midnightblue" stroke="midnightblue" points="184.54,-84.67 190.39,-75.83 180.31,-79.1 184.54,-84.67"/>
</g>
<!-- Node3 -->
<g id="node3" class="node">
<title>Node3</title>
<g id="a_node3"><a xlink:title=" ">
<polygon fill="white" stroke="#bfbfbf" points="15,-0.5 15,-19.5 71,-19.5 71,-0.5 15,-0.5"/>
<text text-anchor="middle" x="43" y="-7.5" font-family="Helvetica,sans-Serif" font-size="10.00">stddef.h</text>
</a>
</g>
</g>
<!-- Node2&#45;&gt;Node3 -->
<g id="edge2" class="edge">
<title>Node2&#45;&gt;Node3</title>
<path fill="none" stroke="midnightblue" d="M43,-56.08C43,-49.01 43,-38.86 43,-29.99"/>
<polygon fill="midnightblue" stroke="midnightblue" points="46.5,-29.75 43,-19.75 39.5,-29.75 46.5,-29.75"/>
</g>
</g>
</svg>
