<?xml version="1.0" encoding="UTF-8" standalone="no"?>
<!DOCTYPE svg PUBLIC "-//W3C//DTD SVG 1.1//EN"
 "http://www.w3.org/Graphics/SVG/1.1/DTD/svg11.dtd">
<!-- Generated by graphviz version 2.43.0 (0)
 -->
<!-- Title: include/mathi/mathi.h Pages: 1 -->
<svg width="1703pt" height="140pt"
 viewBox="0.00 0.00 1702.50 140.00" xmlns="http://www.w3.org/2000/svg" xmlns:xlink="http://www.w3.org/1999/xlink">
<g id="graph0" class="graph" transform="scale(1 1) rotate(0) translate(4 136)">
<title>include/mathi/mathi.h</title>
<polygon fill="white" stroke="transparent" points="-4,4 -4,-136 1698.5,-136 1698.5,4 -4,4"/>
<!-- Node1 -->
<g id="node1" class="node">
<title>Node1</title>
<g id="a_node1"><a xlink:title=" ">
<polygon fill="#bfbfbf" stroke="black" points="743,-112.5 743,-131.5 867,-131.5 867,-112.5 743,-112.5"/>
<text text-anchor="middle" x="805" y="-119.5" font-family="Helvetica,sans-Serif" font-size="10.00">include/mathi/mathi.h</text>
</a>
</g>
</g>
<!-- Node2 -->
<g id="node2" class="node">
<title>Node2</title>
<g id="a_node2"><a xlink:href="util_8h.html" target="_top" xlink:title="Utility functions for swapping, clamping, and memory operations.">
<polygon fill="white" stroke="black" points="751.5,-56.5 751.5,-75.5 792.5,-75.5 792.5,-56.5 751.5,-56.5"/>
<text text-anchor="middle" x="772" y="-63.5" font-family="Helvetica,sans-Serif" font-size="10.00">util.h</text>
</a>
</g>
</g>
<!-- Node1&#45;&gt;Node2 -->
<g id="edge1" class="edge">
<title>Node1&#45;&gt;Node2</title>
<path fill="none" stroke="midnightblue" d="M799.55,-112.08C794.99,-104.61 788.33,-93.72 782.71,-84.52"/>
<polygon fill="midnightblue" stroke="midnightblue" points="785.55,-82.46 777.35,-75.75 779.58,-86.11 785.55,-82.46"/>
</g>
<!-- Node4 -->
<g id="node4" class="node">
<title>Node4</title>
<g id="a_node4"><a xlink:href="validator_8h.html" target="_top" xlink:title="Functions for validating strings and numeric ranges.">
<polygon fill="white" stroke="black" points="71,-56.5 71,-75.5 139,-75.5 139,-56.5 71,-56.5"/>
<text text-anchor="middle" x="105" y="-63.5" font-family="Helvetica,sans-Serif" font-size="10.00">validator.h</text>
</a>
</g>
</g>
<!-- Node1&#45;&gt;Node4 -->
<g id="edge3" class="edge">
<title>Node1&#45;&gt;Node4</title>
<path fill="none" stroke="midnightblue" d="M742.66,-119.59C627.32,-116.36 372.76,-106.32 149.15,-75.97"/>
<polygon fill="midnightblue" stroke="midnightblue" points="149.58,-72.49 139.19,-74.6 148.62,-79.43 149.58,-72.49"/>
</g>
<!-- Node5 -->
<g id="node5" class="node">
<title>Node5</title>
<g id="a_node5"><a xlink:href="array_8h.html" target="_top" xlink:title=" ">
<polygon fill="white" stroke="black" points="157,-56.5 157,-75.5 207,-75.5 207,-56.5 157,-56.5"/>
<text text-anchor="middle" x="182" y="-63.5" font-family="Helvetica,sans-Serif" font-size="10.00">array.h</text>
</a>
</g>
</g>
<!-- Node1&#45;&gt;Node5 -->
<g id="edge4" class="edge">
<title>Node1&#45;&gt;Node5</title>
<path fill="none" stroke="midnightblue" d="M742.64,-119.97C636.44,-117.39 413.66,-108.45 217.07,-75.87"/>
<polygon fill="midnightblue" stroke="midnightblue" points="217.58,-72.41 207.14,-74.2 216.42,-79.31 217.58,-72.41"/>
</g>
<!-- Node6 -->
<g id="node6" class="node">
<title>Node6</title>
<g id="a_node6"><a xlink:href="algo_8h.html" target="_top" xlink:title=" ">
<polygon fill="white" stroke="black" points="225.5,-56.5 225.5,-75.5 272.5,-75.5 272.5,-56.5 225.5,-56.5"/>
<text text-anchor="middle" x="249" y="-63.5" font-family="Helvetica,sans-Serif" font-size="10.00">algo.h</text>
</a>
</g>
</g>
<!-- Node1&#45;&gt;Node6 -->
<g id="edge5" class="edge">
<title>Node1&#45;&gt;Node6</title>
<path fill="none" stroke="midnightblue" d="M742.79,-119.44C646.02,-116.19 453.58,-106.41 282.58,-75.98"/>
<polygon fill="midnightblue" stroke="midnightblue" points="283.11,-72.52 272.65,-74.19 281.87,-79.41 283.11,-72.52"/>
</g>
<!-- Node7 -->
<g id="node7" class="node">
<title>Node7</title>
<g id="a_node7"><a xlink:href="ds_8h.html" target="_top" xlink:title=" ">
<polygon fill="white" stroke="black" points="290.5,-56.5 290.5,-75.5 327.5,-75.5 327.5,-56.5 290.5,-56.5"/>
<text text-anchor="middle" x="309" y="-63.5" font-family="Helvetica,sans-Serif" font-size="10.00">ds.h</text>
</a>
</g>
</g>
<!-- Node1&#45;&gt;Node7 -->
<g id="edge6" class="edge">
<title>Node1&#45;&gt;Node7</title>
<path fill="none" stroke="midnightblue" d="M742.67,-119.26C654.31,-115.86 487.65,-106 337.4,-75.6"/>
<polygon fill="midnightblue" stroke="midnightblue" points="338.03,-72.16 327.53,-73.57 336.62,-79.01 338.03,-72.16"/>
</g>
<!-- Node8 -->
<g id="node8" class="node">
<title>Node8</title>
<g id="a_node8"><a xlink:href="dsx_8h.html" target="_top" xlink:title=" ">
<polygon fill="white" stroke="black" points="9.5,-56.5 9.5,-75.5 52.5,-75.5 52.5,-56.5 9.5,-56.5"/>
<text text-anchor="middle" x="31" y="-63.5" font-family="Helvetica,sans-Serif" font-size="10.00">dsx.h</text>
</a>
</g>
</g>
<!-- Node1&#45;&gt;Node8 -->
<g id="edge7" class="edge">
<title>Node1&#45;&gt;Node8</title>
<path fill="none" stroke="midnightblue" d="M742.82,-121.87C616.15,-122.63 319.24,-119.32 62.42,-75.62"/>
<polygon fill="midnightblue" stroke="midnightblue" points="62.99,-72.17 52.54,-73.92 61.8,-79.06 62.99,-72.17"/>
</g>
<!-- Node10 -->
<g id="node10" class="node">
<title>Node10</title>
<g id="a_node10"><a xlink:href="mathx_8h.html" target="_top" xlink:title=" ">
<polygon fill="white" stroke="black" points="418.5,-56.5 418.5,-75.5 475.5,-75.5 475.5,-56.5 418.5,-56.5"/>
<text text-anchor="middle" x="447" y="-63.5" font-family="Helvetica,sans-Serif" font-size="10.00">mathx.h</text>
</a>
</g>
</g>
<!-- Node1&#45;&gt;Node10 -->
<g id="edge10" class="edge">
<title>Node1&#45;&gt;Node10</title>
<path fill="none" stroke="midnightblue" d="M742.78,-113.99C680.3,-106.55 581.11,-93.68 485.69,-75.97"/>
<polygon fill="midnightblue" stroke="midnightblue" points="486.05,-72.47 475.57,-74.07 484.76,-79.35 486.05,-72.47"/>
</g>
<!-- Node11 -->
<g id="node11" class="node">
<title>Node11</title>
<g id="a_node11"><a xlink:href="mathphy_8h.html" target="_top" xlink:title=" ">
<polygon fill="white" stroke="black" points="494,-56.5 494,-75.5 562,-75.5 562,-56.5 494,-56.5"/>
<text text-anchor="middle" x="528" y="-63.5" font-family="Helvetica,sans-Serif" font-size="10.00">mathphy.h</text>
</a>
</g>
</g>
<!-- Node1&#45;&gt;Node11 -->
<g id="edge11" class="edge">
<title>Node1&#45;&gt;Node11</title>
<path fill="none" stroke="midnightblue" d="M759.22,-112.43C714.14,-103.93 643.05,-90.4 572.24,-76.23"/>
<polygon fill="midnightblue" stroke="midnightblue" points="572.75,-72.76 562.26,-74.22 571.37,-79.62 572.75,-72.76"/>
</g>
<!-- Node12 -->
<g id="node12" class="node">
<title>Node12</title>
<g id="a_node12"><a xlink:href="conversion_8h.html" target="_top" xlink:title=" ">
<polygon fill="white" stroke="black" points="580.5,-56.5 580.5,-75.5 659.5,-75.5 659.5,-56.5 580.5,-56.5"/>
<text text-anchor="middle" x="620" y="-63.5" font-family="Helvetica,sans-Serif" font-size="10.00">conversion.h</text>
</a>
</g>
</g>
<!-- Node1&#45;&gt;Node12 -->
<g id="edge12" class="edge">
<title>Node1&#45;&gt;Node12</title>
<path fill="none" stroke="midnightblue" d="M775.69,-112.44C744.16,-103.24 693.87,-88.56 659.01,-78.39"/>
<polygon fill="midnightblue" stroke="midnightblue" points="659.76,-74.96 649.18,-75.52 657.8,-81.68 659.76,-74.96"/>
</g>
<!-- Node13 -->
<g id="node13" class="node">
<title>Node13</title>
<g id="a_node13"><a xlink:href="codec_8h.html" target="_top" xlink:title=" ">
<polygon fill="white" stroke="black" points="346,-56.5 346,-75.5 400,-75.5 400,-56.5 346,-56.5"/>
<text text-anchor="middle" x="373" y="-63.5" font-family="Helvetica,sans-Serif" font-size="10.00">codec.h</text>
</a>
</g>
</g>
<!-- Node1&#45;&gt;Node13 -->
<g id="edge13" class="edge">
<title>Node1&#45;&gt;Node13</title>
<path fill="none" stroke="midnightblue" d="M742.9,-116.49C666.68,-110.39 533.37,-97.88 410.04,-75.97"/>
<polygon fill="midnightblue" stroke="midnightblue" points="410.51,-72.5 400.04,-74.17 409.26,-79.38 410.51,-72.5"/>
</g>
<!-- Node14 -->
<g id="node14" class="node">
<title>Node14</title>
<g id="a_node14"><a xlink:href="crypto_8h.html" target="_top" xlink:title=" ">
<polygon fill="white" stroke="black" points="677,-56.5 677,-75.5 733,-75.5 733,-56.5 677,-56.5"/>
<text text-anchor="middle" x="705" y="-63.5" font-family="Helvetica,sans-Serif" font-size="10.00">crypto.h</text>
</a>
</g>
</g>
<!-- Node1&#45;&gt;Node14 -->
<g id="edge15" class="edge">
<title>Node1&#45;&gt;Node14</title>
<path fill="none" stroke="midnightblue" d="M788.93,-112.32C773.04,-103.74 748.49,-90.49 730.04,-80.52"/>
<polygon fill="midnightblue" stroke="midnightblue" points="731.49,-77.33 721.03,-75.65 728.16,-83.49 731.49,-77.33"/>
</g>
<!-- Node15 -->
<g id="node15" class="node">
<title>Node15</title>
<g id="a_node15"><a xlink:href="inputx_8h.html" target="_top" xlink:title=" ">
<polygon fill="white" stroke="black" points="811,-56.5 811,-75.5 867,-75.5 867,-56.5 811,-56.5"/>
<text text-anchor="middle" x="839" y="-63.5" font-family="Helvetica,sans-Serif" font-size="10.00">inputx.h</text>
</a>
</g>
</g>
<!-- Node1&#45;&gt;Node15 -->
<g id="edge17" class="edge">
<title>Node1&#45;&gt;Node15</title>
<path fill="none" stroke="midnightblue" d="M810.61,-112.08C815.37,-104.53 822.32,-93.49 828.15,-84.23"/>
<polygon fill="midnightblue" stroke="midnightblue" points="831.12,-86.08 833.49,-75.75 825.2,-82.35 831.12,-86.08"/>
</g>
<!-- Node16 -->
<g id="node16" class="node">
<title>Node16</title>
<g id="a_node16"><a xlink:href="config_8h.html" target="_top" xlink:title=" ">
<polygon fill="white" stroke="black" points="885.5,-56.5 885.5,-75.5 940.5,-75.5 940.5,-56.5 885.5,-56.5"/>
<text text-anchor="middle" x="913" y="-63.5" font-family="Helvetica,sans-Serif" font-size="10.00">config.h</text>
</a>
</g>
</g>
<!-- Node1&#45;&gt;Node16 -->
<g id="edge18" class="edge">
<title>Node1&#45;&gt;Node16</title>
<path fill="none" stroke="midnightblue" d="M822.35,-112.32C839.67,-103.66 866.52,-90.24 886.5,-80.25"/>
<polygon fill="midnightblue" stroke="midnightblue" points="888.31,-83.26 895.69,-75.65 885.18,-77 888.31,-83.26"/>
</g>
<!-- Node17 -->
<g id="node17" class="node">
<title>Node17</title>
<g id="a_node17"><a xlink:href="filex_8h.html" target="_top" xlink:title=" ">
<polygon fill="white" stroke="black" points="1023.5,-56.5 1023.5,-75.5 1070.5,-75.5 1070.5,-56.5 1023.5,-56.5"/>
<text text-anchor="middle" x="1047" y="-63.5" font-family="Helvetica,sans-Serif" font-size="10.00">filex.h</text>
</a>
</g>
</g>
<!-- Node1&#45;&gt;Node17 -->
<g id="edge19" class="edge">
<title>Node1&#45;&gt;Node17</title>
<path fill="none" stroke="midnightblue" d="M847.98,-112.45C888.28,-104.28 950.41,-91.28 1013.52,-76.01"/>
<polygon fill="midnightblue" stroke="midnightblue" points="1014.36,-79.41 1023.25,-73.64 1012.7,-72.61 1014.36,-79.41"/>
</g>
<!-- Node19 -->
<g id="node19" class="node">
<title>Node19</title>
<g id="a_node19"><a xlink:href="logx_8h.html" target="_top" xlink:title=" ">
<polygon fill="white" stroke="black" points="958.5,-56.5 958.5,-75.5 1005.5,-75.5 1005.5,-56.5 958.5,-56.5"/>
<text text-anchor="middle" x="982" y="-63.5" font-family="Helvetica,sans-Serif" font-size="10.00">logx.h</text>
</a>
</g>
</g>
<!-- Node1&#45;&gt;Node19 -->
<g id="edge21" class="edge">
<title>Node1&#45;&gt;Node19</title>
<path fill="none" stroke="midnightblue" d="M833.05,-112.44C864.41,-102.88 915.17,-87.39 948.57,-77.2"/>
<polygon fill="midnightblue" stroke="midnightblue" points="949.79,-80.49 958.33,-74.22 947.75,-73.79 949.79,-80.49"/>
</g>
<!-- Node21 -->
<g id="node21" class="node">
<title>Node21</title>
<g id="a_node21"><a xlink:href="sys_8h.html" target="_top" xlink:title="Fundamental system utilities (environment variables, memory info, etc.).">
<polygon fill="white" stroke="black" points="1089,-56.5 1089,-75.5 1131,-75.5 1131,-56.5 1089,-56.5"/>
<text text-anchor="middle" x="1110" y="-63.5" font-family="Helvetica,sans-Serif" font-size="10.00">sys.h</text>
</a>
</g>
</g>
<!-- Node1&#45;&gt;Node21 -->
<g id="edge23" class="edge">
<title>Node1&#45;&gt;Node21</title>
<path fill="none" stroke="midnightblue" d="M867.17,-112.96C922.97,-105.22 1006.95,-92.31 1079,-76 1079.1,-75.98 1079.2,-75.96 1079.3,-75.93"/>
<polygon fill="midnightblue" stroke="midnightblue" points="1079.91,-79.39 1088.74,-73.54 1078.19,-72.6 1079.91,-79.39"/>
</g>
<!-- Node22 -->
<g id="node22" class="node">
<title>Node22</title>
<g id="a_node22"><a xlink:href="sort_8h.html" target="_top" xlink:title=" ">
<polygon fill="white" stroke="black" points="1149,-56.5 1149,-75.5 1193,-75.5 1193,-56.5 1149,-56.5"/>
<text text-anchor="middle" x="1171" y="-63.5" font-family="Helvetica,sans-Serif" font-size="10.00">sort.h</text>
</a>
</g>
</g>
<!-- Node1&#45;&gt;Node22 -->
<g id="edge24" class="edge">
<title>Node1&#45;&gt;Node22</title>
<path fill="none" stroke="midnightblue" d="M867.22,-115.44C932.66,-108.97 1038.73,-96.7 1138.78,-75.99"/>
<polygon fill="midnightblue" stroke="midnightblue" points="1139.68,-79.37 1148.75,-73.89 1138.24,-72.52 1139.68,-79.37"/>
</g>
<!-- Node23 -->
<g id="node23" class="node">
<title>Node23</title>
<g id="a_node23"><a xlink:href="search_8h.html" target="_top" xlink:title=" ">
<polygon fill="white" stroke="black" points="1211,-56.5 1211,-75.5 1269,-75.5 1269,-56.5 1211,-56.5"/>
<text text-anchor="middle" x="1240" y="-63.5" font-family="Helvetica,sans-Serif" font-size="10.00">search.h</text>
</a>
</g>
</g>
<!-- Node1&#45;&gt;Node23 -->
<g id="edge25" class="edge">
<title>Node1&#45;&gt;Node23</title>
<path fill="none" stroke="midnightblue" d="M867.22,-116.27C943.59,-109.94 1077.19,-97.2 1200.61,-76.06"/>
<polygon fill="midnightblue" stroke="midnightblue" points="1201.36,-79.48 1210.61,-74.33 1200.16,-72.59 1201.36,-79.48"/>
</g>
<!-- Node24 -->
<g id="node24" class="node">
<title>Node24</title>
<g id="a_node24"><a xlink:href="stats_8h.html" target="_top" xlink:title="Statistical functions for integer arrays.">
<polygon fill="white" stroke="black" points="1287,-56.5 1287,-75.5 1337,-75.5 1337,-56.5 1287,-56.5"/>
<text text-anchor="middle" x="1312" y="-63.5" font-family="Helvetica,sans-Serif" font-size="10.00">stats.h</text>
</a>
</g>
</g>
<!-- Node1&#45;&gt;Node24 -->
<g id="edge26" class="edge">
<title>Node1&#45;&gt;Node24</title>
<path fill="none" stroke="midnightblue" d="M867.04,-118.34C955.9,-113.82 1124.59,-102.58 1276.85,-75.93"/>
<polygon fill="midnightblue" stroke="midnightblue" points="1277.62,-79.34 1286.85,-74.15 1276.39,-72.45 1277.62,-79.34"/>
</g>
<!-- Node25 -->
<g id="node25" class="node">
<title>Node25</title>
<g id="a_node25"><a xlink:href="matrix_8h.html" target="_top" xlink:title=" ">
<polygon fill="white" stroke="black" points="1355,-56.5 1355,-75.5 1413,-75.5 1413,-56.5 1355,-56.5"/>
<text text-anchor="middle" x="1384" y="-63.5" font-family="Helvetica,sans-Serif" font-size="10.00">matrix.h</text>
</a>
</g>
</g>
<!-- Node1&#45;&gt;Node25 -->
<g id="edge27" class="edge">
<title>Node1&#45;&gt;Node25</title>
<path fill="none" stroke="midnightblue" d="M867.02,-118.86C966.09,-114.77 1166.2,-103.81 1344.54,-76.01"/>
<polygon fill="midnightblue" stroke="midnightblue" points="1345.3,-79.43 1354.63,-74.41 1344.2,-72.52 1345.3,-79.43"/>
</g>
<!-- Node26 -->
<g id="node26" class="node">
<title>Node26</title>
<g id="a_node26"><a xlink:href="networking_8h.html" target="_top" xlink:title=" ">
<polygon fill="white" stroke="black" points="1431,-56.5 1431,-75.5 1511,-75.5 1511,-56.5 1431,-56.5"/>
<text text-anchor="middle" x="1471" y="-63.5" font-family="Helvetica,sans-Serif" font-size="10.00">networking.h</text>
</a>
</g>
</g>
<!-- Node1&#45;&gt;Node26 -->
<g id="edge28" class="edge">
<title>Node1&#45;&gt;Node26</title>
<path fill="none" stroke="midnightblue" d="M867.4,-118.7C977.23,-114.15 1212.38,-102.22 1420.73,-76.02"/>
<polygon fill="midnightblue" stroke="midnightblue" points="1421.47,-79.46 1430.94,-74.72 1420.58,-72.51 1421.47,-79.46"/>
</g>
<!-- Node33 -->
<g id="node33" class="node">
<title>Node33</title>
<g id="a_node33"><a xlink:href="stringx_8h.html" target="_top" xlink:title="String manipulation utilities for C.">
<polygon fill="white" stroke="black" points="1529.5,-56.5 1529.5,-75.5 1588.5,-75.5 1588.5,-56.5 1529.5,-56.5"/>
<text text-anchor="middle" x="1559" y="-63.5" font-family="Helvetica,sans-Serif" font-size="10.00">stringx.h</text>
</a>
</g>
</g>
<!-- Node1&#45;&gt;Node33 -->
<g id="edge36" class="edge">
<title>Node1&#45;&gt;Node33</title>
<path fill="none" stroke="midnightblue" d="M867.04,-120.51C989.81,-118.79 1272.44,-111.17 1519.05,-75.87"/>
<polygon fill="midnightblue" stroke="midnightblue" points="1519.89,-79.28 1529.28,-74.39 1518.89,-72.36 1519.89,-79.28"/>
</g>
<!-- Node3 -->
<g id="node3" class="node">
<title>Node3</title>
<g id="a_node3"><a xlink:title=" ">
<polygon fill="white" stroke="#bfbfbf" points="511,-0.5 511,-19.5 567,-19.5 567,-0.5 511,-0.5"/>
<text text-anchor="middle" x="539" y="-7.5" font-family="Helvetica,sans-Serif" font-size="10.00">stddef.h</text>
</a>
</g>
</g>
<!-- Node2&#45;&gt;Node3 -->
<g id="edge2" class="edge">
<title>Node2&#45;&gt;Node3</title>
<path fill="none" stroke="midnightblue" d="M751.4,-58.6C748.26,-57.69 745.05,-56.79 742,-56 684.84,-41.11 617.81,-26.87 576.89,-18.53"/>
<polygon fill="midnightblue" stroke="midnightblue" points="577.56,-15.1 567.07,-16.54 576.17,-21.96 577.56,-15.1"/>
</g>
<!-- Node8&#45;&gt;Node3 -->
<g id="edge8" class="edge">
<title>Node8&#45;&gt;Node3</title>
<path fill="none" stroke="midnightblue" d="M52.55,-58.18C55.7,-57.35 58.92,-56.59 62,-56 223.09,-25.3 418.96,-15.2 500.5,-12.17"/>
<polygon fill="midnightblue" stroke="midnightblue" points="500.91,-15.66 510.78,-11.81 500.66,-8.67 500.91,-15.66"/>
</g>
<!-- Node9 -->
<g id="node9" class="node">
<title>Node9</title>
<g id="a_node9"><a xlink:title=" ">
<polygon fill="white" stroke="#bfbfbf" points="0,-0.5 0,-19.5 62,-19.5 62,-0.5 0,-0.5"/>
<text text-anchor="middle" x="31" y="-7.5" font-family="Helvetica,sans-Serif" font-size="10.00">stdbool.h</text>
</a>
</g>
</g>
<!-- Node8&#45;&gt;Node9 -->
<g id="edge9" class="edge">
<title>Node8&#45;&gt;Node9</title>
<path fill="none" stroke="midnightblue" d="M31,-56.08C31,-49.01 31,-38.86 31,-29.99"/>
<polygon fill="midnightblue" stroke="midnightblue" points="34.5,-29.75 31,-19.75 27.5,-29.75 34.5,-29.75"/>
</g>
<!-- Node13&#45;&gt;Node3 -->
<g id="edge14" class="edge">
<title>Node13&#45;&gt;Node3</title>
<path fill="none" stroke="midnightblue" d="M399.3,-56.44C427.35,-47.32 471.94,-32.81 503.18,-22.65"/>
<polygon fill="midnightblue" stroke="midnightblue" points="504.39,-25.94 512.82,-19.52 502.23,-19.28 504.39,-25.94"/>
</g>
<!-- Node14&#45;&gt;Node3 -->
<g id="edge16" class="edge">
<title>Node14&#45;&gt;Node3</title>
<path fill="none" stroke="midnightblue" d="M678.7,-56.44C650.65,-47.32 606.06,-32.81 574.82,-22.65"/>
<polygon fill="midnightblue" stroke="midnightblue" points="575.77,-19.28 565.18,-19.52 573.61,-25.94 575.77,-19.28"/>
</g>
<!-- Node18 -->
<g id="node18" class="node">
<title>Node18</title>
<g id="a_node18"><a xlink:title=" ">
<polygon fill="white" stroke="#bfbfbf" points="1119,-0.5 1119,-19.5 1169,-19.5 1169,-0.5 1119,-0.5"/>
<text text-anchor="middle" x="1144" y="-7.5" font-family="Helvetica,sans-Serif" font-size="10.00">stdio.h</text>
</a>
</g>
</g>
<!-- Node17&#45;&gt;Node18 -->
<g id="edge20" class="edge">
<title>Node17&#45;&gt;Node18</title>
<path fill="none" stroke="midnightblue" d="M1062.58,-56.32C1078,-47.74 1101.81,-34.49 1119.71,-24.52"/>
<polygon fill="midnightblue" stroke="midnightblue" points="1121.42,-27.58 1128.45,-19.65 1118.01,-21.46 1121.42,-27.58"/>
</g>
<!-- Node20 -->
<g id="node20" class="node">
<title>Node20</title>
<g id="a_node20"><a xlink:title=" ">
<polygon fill="white" stroke="#bfbfbf" points="954,-0.5 954,-19.5 1010,-19.5 1010,-0.5 954,-0.5"/>
<text text-anchor="middle" x="982" y="-7.5" font-family="Helvetica,sans-Serif" font-size="10.00">stdarg.h</text>
</a>
</g>
</g>
<!-- Node19&#45;&gt;Node20 -->
<g id="edge22" class="edge">
<title>Node19&#45;&gt;Node20</title>
<path fill="none" stroke="midnightblue" d="M982,-56.08C982,-49.01 982,-38.86 982,-29.99"/>
<polygon fill="midnightblue" stroke="midnightblue" points="985.5,-29.75 982,-19.75 978.5,-29.75 985.5,-29.75"/>
</g>
<!-- Node26&#45;&gt;Node18 -->
<g id="edge29" class="edge">
<title>Node26&#45;&gt;Node18</title>
<path fill="none" stroke="midnightblue" d="M1430.9,-57.56C1427.89,-57.03 1424.9,-56.5 1422,-56 1335.01,-40.97 1232.43,-24.76 1179.53,-16.51"/>
<polygon fill="midnightblue" stroke="midnightblue" points="1179.75,-13 1169.33,-14.92 1178.67,-19.91 1179.75,-13"/>
</g>
<!-- Node27 -->
<g id="node27" class="node">
<title>Node27</title>
<g id="a_node27"><a xlink:title=" ">
<polygon fill="white" stroke="#bfbfbf" points="1408.5,-0.5 1408.5,-19.5 1461.5,-19.5 1461.5,-0.5 1408.5,-0.5"/>
<text text-anchor="middle" x="1435" y="-7.5" font-family="Helvetica,sans-Serif" font-size="10.00">stdlib.h</text>
</a>
</g>
</g>
<!-- Node26&#45;&gt;Node27 -->
<g id="edge30" class="edge">
<title>Node26&#45;&gt;Node27</title>
<path fill="none" stroke="midnightblue" d="M1465.06,-56.08C1460.02,-48.53 1452.66,-37.49 1446.49,-28.23"/>
<polygon fill="midnightblue" stroke="midnightblue" points="1449.29,-26.13 1440.83,-19.75 1443.47,-30.01 1449.29,-26.13"/>
</g>
<!-- Node28 -->
<g id="node28" class="node">
<title>Node28</title>
<g id="a_node28"><a xlink:title=" ">
<polygon fill="white" stroke="#bfbfbf" points="1479.5,-0.5 1479.5,-19.5 1532.5,-19.5 1532.5,-0.5 1479.5,-0.5"/>
<text text-anchor="middle" x="1506" y="-7.5" font-family="Helvetica,sans-Serif" font-size="10.00">string.h</text>
</a>
</g>
</g>
<!-- Node26&#45;&gt;Node28 -->
<g id="edge31" class="edge">
<title>Node26&#45;&gt;Node28</title>
<path fill="none" stroke="midnightblue" d="M1476.78,-56.08C1481.67,-48.53 1488.83,-37.49 1494.83,-28.23"/>
<polygon fill="midnightblue" stroke="midnightblue" points="1497.83,-30.05 1500.33,-19.75 1491.95,-26.24 1497.83,-30.05"/>
</g>
<!-- Node29 -->
<g id="node29" class="node">
<title>Node29</title>
<g id="a_node29"><a xlink:title=" ">
<polygon fill="white" stroke="#bfbfbf" points="1551,-0.5 1551,-19.5 1607,-19.5 1607,-0.5 1551,-0.5"/>
<text text-anchor="middle" x="1579" y="-7.5" font-family="Helvetica,sans-Serif" font-size="10.00">unistd.h</text>
</a>
</g>
</g>
<!-- Node26&#45;&gt;Node29 -->
<g id="edge32" class="edge">
<title>Node26&#45;&gt;Node29</title>
<path fill="none" stroke="midnightblue" d="M1488.35,-56.32C1505.67,-47.66 1532.52,-34.24 1552.5,-24.25"/>
<polygon fill="midnightblue" stroke="midnightblue" points="1554.31,-27.26 1561.69,-19.65 1551.18,-21 1554.31,-27.26"/>
</g>
<!-- Node30 -->
<g id="node30" class="node">
<title>Node30</title>
<g id="a_node30"><a xlink:title=" ">
<polygon fill="white" stroke="#bfbfbf" points="1625.5,-0.5 1625.5,-19.5 1694.5,-19.5 1694.5,-0.5 1625.5,-0.5"/>
<text text-anchor="middle" x="1660" y="-7.5" font-family="Helvetica,sans-Serif" font-size="10.00">arpa/inet.h</text>
</a>
</g>
</g>
<!-- Node26&#45;&gt;Node30 -->
<g id="edge33" class="edge">
<title>Node26&#45;&gt;Node30</title>
<path fill="none" stroke="midnightblue" d="M1500.95,-56.44C1533.16,-47.24 1584.53,-32.56 1620.14,-22.39"/>
<polygon fill="midnightblue" stroke="midnightblue" points="1621.54,-25.63 1630.19,-19.52 1619.62,-18.9 1621.54,-25.63"/>
</g>
<!-- Node31 -->
<g id="node31" class="node">
<title>Node31</title>
<g id="a_node31"><a xlink:title=" ">
<polygon fill="white" stroke="#bfbfbf" points="1242.5,-0.5 1242.5,-19.5 1319.5,-19.5 1319.5,-0.5 1242.5,-0.5"/>
<text text-anchor="middle" x="1281" y="-7.5" font-family="Helvetica,sans-Serif" font-size="10.00">sys/socket.h</text>
</a>
</g>
</g>
<!-- Node26&#45;&gt;Node31 -->
<g id="edge34" class="edge">
<title>Node26&#45;&gt;Node31</title>
<path fill="none" stroke="midnightblue" d="M1440.89,-56.44C1408.37,-47.2 1356.42,-32.44 1320.61,-22.26"/>
<polygon fill="midnightblue" stroke="midnightblue" points="1321.54,-18.88 1310.97,-19.52 1319.63,-25.62 1321.54,-18.88"/>
</g>
<!-- Node32 -->
<g id="node32" class="node">
<title>Node32</title>
<g id="a_node32"><a xlink:title=" ">
<polygon fill="white" stroke="#bfbfbf" points="1337.5,-0.5 1337.5,-19.5 1390.5,-19.5 1390.5,-0.5 1337.5,-0.5"/>
<text text-anchor="middle" x="1364" y="-7.5" font-family="Helvetica,sans-Serif" font-size="10.00">netdb.h</text>
</a>
</g>
</g>
<!-- Node26&#45;&gt;Node32 -->
<g id="edge35" class="edge">
<title>Node26&#45;&gt;Node32</title>
<path fill="none" stroke="midnightblue" d="M1453.81,-56.32C1436.65,-47.66 1410.05,-34.24 1390.25,-24.25"/>
<polygon fill="midnightblue" stroke="midnightblue" points="1391.65,-21.04 1381.15,-19.65 1388.5,-27.28 1391.65,-21.04"/>
</g>
</g>
</svg>
