<?xml version="1.0" encoding="UTF-8" standalone="no"?>
<!DOCTYPE svg PUBLIC "-//W3C//DTD SVG 1.1//EN"
 "http://www.w3.org/Graphics/SVG/1.1/DTD/svg11.dtd">
<!-- Generated by graphviz version 2.43.0 (0)
 -->
<!-- Title: src/mathison.c Pages: 1 -->
<svg width="407pt" height="140pt"
 viewBox="0.00 0.00 407.00 140.00" xmlns="http://www.w3.org/2000/svg" xmlns:xlink="http://www.w3.org/1999/xlink">
<g id="graph0" class="graph" transform="scale(1 1) rotate(0) translate(4 136)">
<title>src/mathison.c</title>
<polygon fill="white" stroke="transparent" points="-4,4 -4,-136 403,-136 403,4 -4,4"/>
<!-- Node1 -->
<g id="node1" class="node">
<title>Node1</title>
<g id="a_node1"><a xlink:title=" ">
<polygon fill="#bfbfbf" stroke="black" points="189,-112.5 189,-131.5 277,-131.5 277,-112.5 189,-112.5"/>
<text text-anchor="middle" x="233" y="-119.5" font-family="Helvetica,sans-Serif" font-size="10.00">src/mathison.c</text>
</a>
</g>
</g>
<!-- Node2 -->
<g id="node2" class="node">
<title>Node2</title>
<g id="a_node2"><a xlink:href="mathison_8h.html" target="_top" xlink:title=" ">
<polygon fill="white" stroke="black" points="14.5,-56.5 14.5,-75.5 117.5,-75.5 117.5,-56.5 14.5,-56.5"/>
<text text-anchor="middle" x="66" y="-63.5" font-family="Helvetica,sans-Serif" font-size="10.00">mathi/mathison.h</text>
</a>
</g>
</g>
<!-- Node1&#45;&gt;Node2 -->
<g id="edge1" class="edge">
<title>Node1&#45;&gt;Node2</title>
<path fill="none" stroke="midnightblue" d="M206.54,-112.44C178.32,-103.32 133.46,-88.81 102.03,-78.65"/>
<polygon fill="midnightblue" stroke="midnightblue" points="102.93,-75.26 92.34,-75.52 100.78,-81.92 102.93,-75.26"/>
</g>
<!-- Node5 -->
<g id="node5" class="node">
<title>Node5</title>
<g id="a_node5"><a xlink:title=" ">
<polygon fill="white" stroke="#bfbfbf" points="135.5,-56.5 135.5,-75.5 188.5,-75.5 188.5,-56.5 135.5,-56.5"/>
<text text-anchor="middle" x="162" y="-63.5" font-family="Helvetica,sans-Serif" font-size="10.00">stdlib.h</text>
</a>
</g>
</g>
<!-- Node1&#45;&gt;Node5 -->
<g id="edge4" class="edge">
<title>Node1&#45;&gt;Node5</title>
<path fill="none" stroke="midnightblue" d="M221.59,-112.32C210.89,-104.18 194.66,-91.84 181.84,-82.09"/>
<polygon fill="midnightblue" stroke="midnightblue" points="183.69,-79.1 173.61,-75.83 179.46,-84.67 183.69,-79.1"/>
</g>
<!-- Node6 -->
<g id="node6" class="node">
<title>Node6</title>
<g id="a_node6"><a xlink:title=" ">
<polygon fill="white" stroke="#bfbfbf" points="206.5,-56.5 206.5,-75.5 259.5,-75.5 259.5,-56.5 206.5,-56.5"/>
<text text-anchor="middle" x="233" y="-63.5" font-family="Helvetica,sans-Serif" font-size="10.00">string.h</text>
</a>
</g>
</g>
<!-- Node1&#45;&gt;Node6 -->
<g id="edge5" class="edge">
<title>Node1&#45;&gt;Node6</title>
<path fill="none" stroke="midnightblue" d="M233,-112.08C233,-105.01 233,-94.86 233,-85.99"/>
<polygon fill="midnightblue" stroke="midnightblue" points="236.5,-85.75 233,-75.75 229.5,-85.75 236.5,-85.75"/>
</g>
<!-- Node7 -->
<g id="node7" class="node">
<title>Node7</title>
<g id="a_node7"><a xlink:title=" ">
<polygon fill="white" stroke="#bfbfbf" points="277.5,-56.5 277.5,-75.5 330.5,-75.5 330.5,-56.5 277.5,-56.5"/>
<text text-anchor="middle" x="304" y="-63.5" font-family="Helvetica,sans-Serif" font-size="10.00">ctype.h</text>
</a>
</g>
</g>
<!-- Node1&#45;&gt;Node7 -->
<g id="edge6" class="edge">
<title>Node1&#45;&gt;Node7</title>
<path fill="none" stroke="midnightblue" d="M244.41,-112.32C255.11,-104.18 271.34,-91.84 284.16,-82.09"/>
<polygon fill="midnightblue" stroke="midnightblue" points="286.54,-84.67 292.39,-75.83 282.31,-79.1 286.54,-84.67"/>
</g>
<!-- Node8 -->
<g id="node8" class="node">
<title>Node8</title>
<g id="a_node8"><a xlink:title=" ">
<polygon fill="white" stroke="#bfbfbf" points="349,-56.5 349,-75.5 399,-75.5 399,-56.5 349,-56.5"/>
<text text-anchor="middle" x="374" y="-63.5" font-family="Helvetica,sans-Serif" font-size="10.00">stdio.h</text>
</a>
</g>
</g>
<!-- Node1&#45;&gt;Node8 -->
<g id="edge7" class="edge">
<title>Node1&#45;&gt;Node8</title>
<path fill="none" stroke="midnightblue" d="M255.34,-112.44C278.75,-103.48 315.74,-89.31 342.19,-79.18"/>
<polygon fill="midnightblue" stroke="midnightblue" points="343.68,-82.36 351.76,-75.52 341.17,-75.82 343.68,-82.36"/>
</g>
<!-- Node3 -->
<g id="node3" class="node">
<title>Node3</title>
<g id="a_node3"><a xlink:title=" ">
<polygon fill="white" stroke="#bfbfbf" points="0,-0.5 0,-19.5 56,-19.5 56,-0.5 0,-0.5"/>
<text text-anchor="middle" x="28" y="-7.5" font-family="Helvetica,sans-Serif" font-size="10.00">stddef.h</text>
</a>
</g>
</g>
<!-- Node2&#45;&gt;Node3 -->
<g id="edge2" class="edge">
<title>Node2&#45;&gt;Node3</title>
<path fill="none" stroke="midnightblue" d="M59.73,-56.08C54.36,-48.46 46.48,-37.26 39.92,-27.94"/>
<polygon fill="midnightblue" stroke="midnightblue" points="42.78,-25.91 34.16,-19.75 37.05,-29.94 42.78,-25.91"/>
</g>
<!-- Node4 -->
<g id="node4" class="node">
<title>Node4</title>
<g id="a_node4"><a xlink:title=" ">
<polygon fill="white" stroke="#bfbfbf" points="74,-0.5 74,-19.5 136,-19.5 136,-0.5 74,-0.5"/>
<text text-anchor="middle" x="105" y="-7.5" font-family="Helvetica,sans-Serif" font-size="10.00">stdbool.h</text>
</a>
</g>
</g>
<!-- Node2&#45;&gt;Node4 -->
<g id="edge3" class="edge">
<title>Node2&#45;&gt;Node4</title>
<path fill="none" stroke="midnightblue" d="M72.44,-56.08C77.95,-48.46 86.03,-37.26 92.76,-27.94"/>
<polygon fill="midnightblue" stroke="midnightblue" points="95.66,-29.91 98.68,-19.75 89.99,-25.81 95.66,-29.91"/>
</g>
</g>
</svg>
