<?xml version="1.0" encoding="UTF-8" standalone="no"?>
<!DOCTYPE svg PUBLIC "-//W3C//DTD SVG 1.1//EN"
 "http://www.w3.org/Graphics/SVG/1.1/DTD/svg11.dtd">
<!-- Generated by graphviz version 2.43.0 (0)
 -->
<!-- Title: src/networking.c Pages: 1 -->
<svg width="529pt" height="140pt"
 viewBox="0.00 0.00 528.50 140.00" xmlns="http://www.w3.org/2000/svg" xmlns:xlink="http://www.w3.org/1999/xlink">
<g id="graph0" class="graph" transform="scale(1 1) rotate(0) translate(4 136)">
<title>src/networking.c</title>
<polygon fill="white" stroke="transparent" points="-4,4 -4,-136 524.5,-136 524.5,4 -4,4"/>
<!-- Node1 -->
<g id="node1" class="node">
<title>Node1</title>
<g id="a_node1"><a xlink:title=" ">
<polygon fill="#bfbfbf" stroke="black" points="226.5,-112.5 226.5,-131.5 323.5,-131.5 323.5,-112.5 226.5,-112.5"/>
<text text-anchor="middle" x="275" y="-119.5" font-family="Helvetica,sans-Serif" font-size="10.00">src/networking.c</text>
</a>
</g>
</g>
<!-- Node2 -->
<g id="node2" class="node">
<title>Node2</title>
<g id="a_node2"><a xlink:href="networking_8h.html" target="_top" xlink:title=" ">
<polygon fill="white" stroke="black" points="177,-56.5 177,-75.5 289,-75.5 289,-56.5 177,-56.5"/>
<text text-anchor="middle" x="233" y="-63.5" font-family="Helvetica,sans-Serif" font-size="10.00">mathi/networking.h</text>
</a>
</g>
</g>
<!-- Node1&#45;&gt;Node2 -->
<g id="edge1" class="edge">
<title>Node1&#45;&gt;Node2</title>
<path fill="none" stroke="midnightblue" d="M268.06,-112.08C262.07,-104.38 253.25,-93.03 245.95,-83.65"/>
<polygon fill="midnightblue" stroke="midnightblue" points="248.71,-81.5 239.81,-75.75 243.18,-85.79 248.71,-81.5"/>
</g>
<!-- Node3 -->
<g id="node3" class="node">
<title>Node3</title>
<g id="a_node3"><a xlink:title=" ">
<polygon fill="white" stroke="#bfbfbf" points="0,-0.5 0,-19.5 50,-19.5 50,-0.5 0,-0.5"/>
<text text-anchor="middle" x="25" y="-7.5" font-family="Helvetica,sans-Serif" font-size="10.00">stdio.h</text>
</a>
</g>
</g>
<!-- Node1&#45;&gt;Node3 -->
<g id="edge9" class="edge">
<title>Node1&#45;&gt;Node3</title>
<path fill="none" stroke="midnightblue" d="M239.18,-112.45C209.48,-104.74 166.53,-92.14 131,-76 99.5,-61.69 65.89,-39.82 45.16,-25.46"/>
<polygon fill="midnightblue" stroke="midnightblue" points="47.05,-22.51 36.86,-19.63 43.03,-28.24 47.05,-22.51"/>
</g>
<!-- Node4 -->
<g id="node4" class="node">
<title>Node4</title>
<g id="a_node4"><a xlink:title=" ">
<polygon fill="white" stroke="#bfbfbf" points="68.5,-0.5 68.5,-19.5 121.5,-19.5 121.5,-0.5 68.5,-0.5"/>
<text text-anchor="middle" x="95" y="-7.5" font-family="Helvetica,sans-Serif" font-size="10.00">stdlib.h</text>
</a>
</g>
</g>
<!-- Node1&#45;&gt;Node4 -->
<g id="edge10" class="edge">
<title>Node1&#45;&gt;Node4</title>
<path fill="none" stroke="midnightblue" d="M241.07,-112.43C216.4,-105.2 182.93,-93.24 157,-76 137.21,-62.84 119.01,-42.32 107.52,-27.86"/>
<polygon fill="midnightblue" stroke="midnightblue" points="110.16,-25.55 101.28,-19.76 104.61,-29.82 110.16,-25.55"/>
</g>
<!-- Node5 -->
<g id="node5" class="node">
<title>Node5</title>
<g id="a_node5"><a xlink:title=" ">
<polygon fill="white" stroke="#bfbfbf" points="139.5,-0.5 139.5,-19.5 192.5,-19.5 192.5,-0.5 139.5,-0.5"/>
<text text-anchor="middle" x="166" y="-7.5" font-family="Helvetica,sans-Serif" font-size="10.00">string.h</text>
</a>
</g>
</g>
<!-- Node1&#45;&gt;Node5 -->
<g id="edge11" class="edge">
<title>Node1&#45;&gt;Node5</title>
<path fill="none" stroke="midnightblue" d="M226.43,-112.8C204.84,-106.51 181.35,-95.44 168,-76 158.82,-62.63 159.31,-43.81 161.51,-29.86"/>
<polygon fill="midnightblue" stroke="midnightblue" points="164.97,-30.4 163.49,-19.91 158.11,-29.03 164.97,-30.4"/>
</g>
<!-- Node6 -->
<g id="node6" class="node">
<title>Node6</title>
<g id="a_node6"><a xlink:title=" ">
<polygon fill="white" stroke="#bfbfbf" points="211,-0.5 211,-19.5 267,-19.5 267,-0.5 211,-0.5"/>
<text text-anchor="middle" x="239" y="-7.5" font-family="Helvetica,sans-Serif" font-size="10.00">unistd.h</text>
</a>
</g>
</g>
<!-- Node1&#45;&gt;Node6 -->
<g id="edge12" class="edge">
<title>Node1&#45;&gt;Node6</title>
<path fill="none" stroke="midnightblue" d="M282.4,-112.32C292.3,-99.6 307.56,-75.31 298,-56 291.4,-42.66 278.74,-32.19 266.83,-24.73"/>
<polygon fill="midnightblue" stroke="midnightblue" points="268.39,-21.59 257.98,-19.6 264.88,-27.64 268.39,-21.59"/>
</g>
<!-- Node7 -->
<g id="node7" class="node">
<title>Node7</title>
<g id="a_node7"><a xlink:title=" ">
<polygon fill="white" stroke="#bfbfbf" points="285.5,-0.5 285.5,-19.5 354.5,-19.5 354.5,-0.5 285.5,-0.5"/>
<text text-anchor="middle" x="320" y="-7.5" font-family="Helvetica,sans-Serif" font-size="10.00">arpa/inet.h</text>
</a>
</g>
</g>
<!-- Node1&#45;&gt;Node7 -->
<g id="edge13" class="edge">
<title>Node1&#45;&gt;Node7</title>
<path fill="none" stroke="midnightblue" d="M285.67,-112.24C294.91,-103.95 307.76,-90.65 314,-76 320.19,-61.49 321.42,-43.54 321.26,-30.18"/>
<polygon fill="midnightblue" stroke="midnightblue" points="324.74,-29.68 320.84,-19.82 317.75,-29.96 324.74,-29.68"/>
</g>
<!-- Node8 -->
<g id="node8" class="node">
<title>Node8</title>
<g id="a_node8"><a xlink:title=" ">
<polygon fill="white" stroke="#bfbfbf" points="372.5,-0.5 372.5,-19.5 449.5,-19.5 449.5,-0.5 372.5,-0.5"/>
<text text-anchor="middle" x="411" y="-7.5" font-family="Helvetica,sans-Serif" font-size="10.00">sys/socket.h</text>
</a>
</g>
</g>
<!-- Node1&#45;&gt;Node8 -->
<g id="edge14" class="edge">
<title>Node1&#45;&gt;Node8</title>
<path fill="none" stroke="midnightblue" d="M285.75,-112.39C297.03,-103.35 315.28,-88.7 331,-76 352.02,-59.01 376.08,-39.45 392.28,-26.26"/>
<polygon fill="midnightblue" stroke="midnightblue" points="394.86,-28.67 400.4,-19.64 390.44,-23.24 394.86,-28.67"/>
</g>
<!-- Node9 -->
<g id="node9" class="node">
<title>Node9</title>
<g id="a_node9"><a xlink:title=" ">
<polygon fill="white" stroke="#bfbfbf" points="467.5,-0.5 467.5,-19.5 520.5,-19.5 520.5,-0.5 467.5,-0.5"/>
<text text-anchor="middle" x="494" y="-7.5" font-family="Helvetica,sans-Serif" font-size="10.00">netdb.h</text>
</a>
</g>
</g>
<!-- Node1&#45;&gt;Node9 -->
<g id="edge15" class="edge">
<title>Node1&#45;&gt;Node9</title>
<path fill="none" stroke="midnightblue" d="M292.18,-112.37C330.32,-93.21 422.26,-47.04 467.69,-24.22"/>
<polygon fill="midnightblue" stroke="midnightblue" points="469.53,-27.21 476.9,-19.59 466.39,-20.95 469.53,-27.21"/>
</g>
<!-- Node2&#45;&gt;Node3 -->
<g id="edge2" class="edge">
<title>Node2&#45;&gt;Node3</title>
<path fill="none" stroke="midnightblue" d="M199.63,-56.43C166.58,-47.93 114.25,-34.43 60.03,-20.26"/>
<polygon fill="midnightblue" stroke="midnightblue" points="60.81,-16.85 50.25,-17.7 59.04,-23.62 60.81,-16.85"/>
</g>
<!-- Node2&#45;&gt;Node4 -->
<g id="edge3" class="edge">
<title>Node2&#45;&gt;Node4</title>
<path fill="none" stroke="midnightblue" d="M211.13,-56.44C188.22,-47.48 152.02,-33.31 126.13,-23.18"/>
<polygon fill="midnightblue" stroke="midnightblue" points="127.35,-19.9 116.76,-19.52 124.8,-26.42 127.35,-19.9"/>
</g>
<!-- Node2&#45;&gt;Node5 -->
<g id="edge4" class="edge">
<title>Node2&#45;&gt;Node5</title>
<path fill="none" stroke="midnightblue" d="M222.24,-56.32C212.23,-48.26 197.11,-36.08 185.07,-26.37"/>
<polygon fill="midnightblue" stroke="midnightblue" points="186.94,-23.38 176.96,-19.83 182.55,-28.83 186.94,-23.38"/>
</g>
<!-- Node2&#45;&gt;Node6 -->
<g id="edge5" class="edge">
<title>Node2&#45;&gt;Node6</title>
<path fill="none" stroke="midnightblue" d="M233.99,-56.08C234.79,-48.93 235.93,-38.64 236.92,-29.69"/>
<polygon fill="midnightblue" stroke="midnightblue" points="240.4,-30.08 238.03,-19.75 233.44,-29.3 240.4,-30.08"/>
</g>
<!-- Node2&#45;&gt;Node7 -->
<g id="edge6" class="edge">
<title>Node2&#45;&gt;Node7</title>
<path fill="none" stroke="midnightblue" d="M246.98,-56.32C260.55,-47.9 281.38,-34.97 297.32,-25.07"/>
<polygon fill="midnightblue" stroke="midnightblue" points="299.41,-27.9 306.06,-19.65 295.71,-21.95 299.41,-27.9"/>
</g>
<!-- Node2&#45;&gt;Node8 -->
<g id="edge7" class="edge">
<title>Node2&#45;&gt;Node8</title>
<path fill="none" stroke="midnightblue" d="M261.2,-56.44C291.41,-47.28 339.51,-32.69 373.03,-22.52"/>
<polygon fill="midnightblue" stroke="midnightblue" points="374.37,-25.77 382.93,-19.52 372.34,-19.07 374.37,-25.77"/>
</g>
<!-- Node2&#45;&gt;Node9 -->
<g id="edge8" class="edge">
<title>Node2&#45;&gt;Node9</title>
<path fill="none" stroke="midnightblue" d="M279.91,-56.44C323.58,-48.3 390.71,-35.33 457.44,-20.27"/>
<polygon fill="midnightblue" stroke="midnightblue" points="458.31,-23.66 467.28,-18.03 456.76,-16.84 458.31,-23.66"/>
</g>
</g>
</svg>
