<?xml version="1.0" encoding="UTF-8" standalone="no"?>
<!DOCTYPE svg PUBLIC "-//W3C//DTD SVG 1.1//EN"
 "http://www.w3.org/Graphics/SVG/1.1/DTD/svg11.dtd">
<!-- Generated by graphviz version 2.43.0 (0)
 -->
<!-- Title: include/mathi/validator.h Pages: 1 -->
<svg width="327pt" height="84pt"
 viewBox="0.00 0.00 326.50 84.00" xmlns="http://www.w3.org/2000/svg" xmlns:xlink="http://www.w3.org/1999/xlink">
<g id="graph0" class="graph" transform="scale(1 1) rotate(0) translate(4 80)">
<title>include/mathi/validator.h</title>
<polygon fill="white" stroke="transparent" points="-4,4 -4,-80 322.5,-80 322.5,4 -4,4"/>
<!-- Node1 -->
<g id="node1" class="node">
<title>Node1</title>
<g id="a_node1"><a xlink:title="Functions for validating strings and numeric ranges.">
<polygon fill="#bfbfbf" stroke="black" points="110,-56.5 110,-75.5 248,-75.5 248,-56.5 110,-56.5"/>
<text text-anchor="middle" x="179" y="-63.5" font-family="Helvetica,sans-Serif" font-size="10.00">include/mathi/validator.h</text>
</a>
</g>
</g>
<!-- Node2 -->
<g id="node2" class="node">
<title>Node2</title>
<g id="a_node2"><a xlink:href="mathi_8h.html" target="_top" xlink:title=" ">
<polygon fill="white" stroke="black" points="0,-0.5 0,-19.5 124,-19.5 124,-0.5 0,-0.5"/>
<text text-anchor="middle" x="62" y="-7.5" font-family="Helvetica,sans-Serif" font-size="10.00">include/mathi/mathi.h</text>
</a>
</g>
</g>
<!-- Node1&#45;&gt;Node2 -->
<g id="edge1" class="edge">
<title>Node1&#45;&gt;Node2</title>
<path fill="none" stroke="midnightblue" d="M151.34,-52.23C129.45,-42.13 99.5,-28.31 80.45,-19.52"/>
<polygon fill="midnightblue" stroke="midnightblue" points="149.91,-55.43 160.46,-56.44 152.85,-49.08 149.91,-55.43"/>
</g>
<!-- Node3 -->
<g id="node3" class="node">
<title>Node3</title>
<g id="a_node3"><a xlink:href="inputx_8c.html" target="_top" xlink:title=" ">
<polygon fill="white" stroke="black" points="142.5,-0.5 142.5,-19.5 215.5,-19.5 215.5,-0.5 142.5,-0.5"/>
<text text-anchor="middle" x="179" y="-7.5" font-family="Helvetica,sans-Serif" font-size="10.00">src/inputx.c</text>
</a>
</g>
</g>
<!-- Node1&#45;&gt;Node3 -->
<g id="edge2" class="edge">
<title>Node1&#45;&gt;Node3</title>
<path fill="none" stroke="midnightblue" d="M179,-45.8C179,-36.91 179,-26.78 179,-19.75"/>
<polygon fill="midnightblue" stroke="midnightblue" points="175.5,-46.08 179,-56.08 182.5,-46.08 175.5,-46.08"/>
</g>
<!-- Node4 -->
<g id="node4" class="node">
<title>Node4</title>
<g id="a_node4"><a xlink:href="validator_8c.html" target="_top" xlink:title=" ">
<polygon fill="white" stroke="black" points="233.5,-0.5 233.5,-19.5 318.5,-19.5 318.5,-0.5 233.5,-0.5"/>
<text text-anchor="middle" x="276" y="-7.5" font-family="Helvetica,sans-Serif" font-size="10.00">src/validator.c</text>
</a>
</g>
</g>
<!-- Node1&#45;&gt;Node4 -->
<g id="edge3" class="edge">
<title>Node1&#45;&gt;Node4</title>
<path fill="none" stroke="midnightblue" d="M203.34,-51.45C221.24,-41.48 245.05,-28.23 260.45,-19.65"/>
<polygon fill="midnightblue" stroke="midnightblue" points="201.62,-48.4 194.58,-56.32 205.02,-54.52 201.62,-48.4"/>
</g>
</g>
</svg>
